<svg width="277" height="66" viewBox="0 0 277 66" fill="none" xmlns="http://www.w3.org/2000/svg">
<path d="M58.6704 48.0858H66.436V49.8449H63.3432V58.1593H61.7634V49.8449H58.6704V48.0858Z" fill="white"/>
<path d="M69.6219 53.8592V48.0858H71.2017V53.814C71.2017 54.6361 71.4139 55.3127 71.8387 55.844C72.2635 56.3752 72.8166 56.6407 73.4981 56.6407C74.1971 56.6407 74.7569 56.3752 75.1773 55.844C75.5977 55.3127 75.8079 54.6361 75.8079 53.814V48.0858H77.4009V53.8592C77.4009 55.2325 77.0447 56.3324 76.3323 57.1595C75.6197 57.9863 74.6796 58.4 73.5113 58.4C72.3432 58.4 71.4027 57.9863 70.6905 57.1595C69.9779 56.3326 69.6219 55.2325 69.6219 53.8592Z" fill="white"/>
<path d="M83.401 48.0858H87.8746V49.8449H83.494C83.2104 49.8449 82.9849 49.9377 82.8169 50.1232C82.6489 50.3089 82.5647 50.5266 82.5647 50.7773C82.5647 50.9977 82.6244 51.198 82.7441 51.3785C82.8635 51.559 83.0382 51.6793 83.2683 51.7395L86.494 52.6114C87.1313 52.7918 87.6178 53.1351 87.9543 53.6412C88.2905 54.1475 88.4587 54.7063 88.4587 55.3177C88.4587 56.0898 88.2264 56.7562 87.7619 57.3175C87.2972 57.8789 86.6578 58.1593 85.8437 58.1593H81.1709V56.4002H85.7774C86.0781 56.4002 86.317 56.2949 86.494 56.0844C86.671 55.8739 86.7596 55.6335 86.7596 55.3629C86.7596 55.1322 86.6933 54.9192 86.5605 54.7238C86.4277 54.5283 86.242 54.4005 86.0029 54.3403L82.7639 53.4682C82.1355 53.2979 81.66 52.9646 81.3371 52.4684C81.0138 51.9723 80.8524 51.4235 80.8524 50.8221C80.8524 50.0805 81.0781 49.4389 81.5293 48.8975C81.9807 48.3564 82.6046 48.0858 83.4012 48.0858H83.401Z" fill="white"/>
<path d="M91.8171 53.8592V48.0858H93.3969V53.814C93.3969 54.6361 93.6094 55.3127 94.0341 55.844C94.4589 56.3752 95.0118 56.6407 95.6935 56.6407C96.3925 56.6407 96.9524 56.3752 97.3727 55.844C97.7929 55.3127 98.0032 54.6361 98.0032 53.814V48.0858H99.5964V53.8592C99.5964 55.2325 99.24 56.3324 98.5277 57.1595C97.8151 57.9863 96.875 58.4 95.7067 58.4C94.5387 58.4 93.5982 57.9863 92.8857 57.1595C92.1733 56.3326 91.8171 55.2325 91.8171 53.8592Z" fill="white"/>
<path d="M105.158 58.1593H103.565V48.0858H108.079C108.964 48.0858 109.68 48.3339 110.229 48.83C110.778 49.3261 111.052 50.0154 111.052 50.8972C111.052 51.8294 110.76 52.5312 110.176 53.0023V53.0473C110.875 53.2378 111.225 53.8344 111.225 54.8366V58.1593H109.632V55.1824C109.632 54.7614 109.428 54.551 109.021 54.551H105.158V58.1593H105.158ZM105.158 49.8449V52.867H107.972C108.415 52.867 108.773 52.7292 109.048 52.4534C109.322 52.1779 109.459 51.8095 109.459 51.3483C109.459 50.8972 109.318 50.5341 109.034 50.2583C108.751 49.9827 108.397 49.8447 107.972 49.8447H105.158V49.8449Z" fill="white"/>
<path d="M120.371 53.8592V48.0858H121.95V53.814C121.95 54.6361 122.163 55.3127 122.588 55.844C123.012 56.3752 123.566 56.6407 124.247 56.6407C124.946 56.6407 125.506 56.3752 125.926 55.844C126.347 55.3127 126.557 54.6361 126.557 53.814V48.0858H128.15V53.8592C128.15 55.2325 127.794 56.3324 127.081 57.1595C126.369 57.9863 125.429 58.4 124.26 58.4C123.092 58.4 122.152 57.9863 121.439 57.1595C120.727 56.3326 120.371 55.2325 120.371 53.8592Z" fill="white"/>
<path d="M138.69 55.1974V48.0858H140.283V58.1593H138.69L133.712 50.5816V58.1593H132.119V48.0858H133.978L138.69 55.1974Z" fill="white"/>
<path d="M144.491 58.1593V48.0858H146.084V58.1593H144.491Z" fill="white"/>
<path d="M153.942 55.9641L156.836 48.0858H158.548L154.778 58.1593H153.039L149.269 48.0858H151.008L153.942 55.9641Z" fill="white"/>
<path d="M168.345 58.1593H161.641V48.0858H168.345V49.8449H163.234V52.1452H167.854V53.8442H163.234V56.4002H168.345V58.1593Z" fill="white"/>
<path d="M173.774 58.1593H172.181V48.0858H176.694C177.579 48.0858 178.296 48.3339 178.845 48.83C179.394 49.3261 179.668 50.0154 179.668 50.8972C179.668 51.8294 179.376 52.5312 178.792 53.0023V53.0473C179.491 53.2378 179.841 53.8344 179.841 54.8366V58.1593H178.248V55.1824C178.248 54.7614 178.044 54.551 177.637 54.551H173.774V58.1593H173.774ZM173.774 49.8449V52.867H176.588C177.031 52.867 177.389 52.7292 177.664 52.4534C177.938 52.1779 178.075 51.8095 178.075 51.3483C178.075 50.8972 177.933 50.5341 177.65 50.2583C177.367 49.9827 177.013 49.8447 176.588 49.8447H173.774V49.8449Z" fill="white"/>
<path d="M185.854 48.0858H190.328V49.8449H185.947C185.664 49.8449 185.438 49.9377 185.27 50.1232C185.102 50.3089 185.018 50.5266 185.018 50.7773C185.018 50.9977 185.077 51.198 185.197 51.3785C185.317 51.559 185.491 51.6793 185.721 51.7395L188.947 52.6114C189.584 52.7918 190.071 53.1351 190.407 53.6412C190.744 54.1475 190.912 54.7063 190.912 55.3177C190.912 56.0898 190.68 56.7562 190.215 57.3175C189.75 57.8789 189.111 58.1593 188.297 58.1593H183.624V56.4002H188.23C188.531 56.4002 188.77 56.2949 188.947 56.0844C189.124 55.8739 189.213 55.6335 189.213 55.3629C189.213 55.1322 189.146 54.9192 189.014 54.7238C188.881 54.5283 188.695 54.4005 188.456 54.3403L185.217 53.4682C184.589 53.2979 184.113 52.9646 183.79 52.4684C183.467 51.9723 183.306 51.4235 183.306 50.8221C183.306 50.0805 183.531 49.4389 183.982 48.8975C184.434 48.3564 185.058 48.0858 185.854 48.0858H185.854Z" fill="white"/>
<path d="M194.536 58.1593V48.0858H196.129V58.1593H194.536Z" fill="white"/>
<path d="M199.567 48.0858H207.332V49.8449H204.239V58.1593H202.659V49.8449H199.567V48.0858Z" fill="white"/>
<path d="M216.797 48.0858H218.642L215.005 54.0245V58.1593H213.412V54.0998L209.775 48.0858H211.66L214.222 52.4009L216.797 48.0858Z" fill="white"/>
<path fill-rule="evenodd" clip-rule="evenodd" d="M75.3701 38.9223L75.4103 14.5123H86.1057V8H58V14.5123H68.6954V38.9223H75.3701Z" fill="white"/>
<path fill-rule="evenodd" clip-rule="evenodd" d="M212.119 8H191.653L191.613 38.8768H198.327V31.3169H212.079C216.462 31.3169 220 27.3091 220 22.3453V16.9714C220.04 12.0074 216.502 8 212.119 8ZM213.486 24.9413H198.327V14.5125H213.486V24.9413Z" fill="white"/>
<path fill-rule="evenodd" clip-rule="evenodd" d="M133.471 38.9223H150.881V32.41H132.265V14.5123H150.881V8H133.471C129.088 8 125.55 12.0076 125.55 16.9714V29.9507C125.55 34.9149 129.089 38.9223 133.471 38.9223Z" fill="white"/>
<path fill-rule="evenodd" clip-rule="evenodd" d="M108.435 38.8768L122.892 8H116.006L107.192 26.823L97.4128 8H90.5262L101.058 28.6131C101.901 30.2642 103.425 31.2771 105.071 31.2817L105.104 31.2819L101.548 38.8769H108.435V38.8768Z" fill="white"/>
<path fill-rule="evenodd" clip-rule="evenodd" d="M169.721 31.2821L169.754 31.2823L166.198 38.8773H173.085L187.542 8.00055H180.655L171.842 26.8236L162.063 8.00055H155.176L165.708 28.6136C166.551 30.2647 168.075 31.2777 169.721 31.2823V31.2821Z" fill="white"/>
</svg>
